<svg xmlns="http://www.w3.org/2000/svg" viewBox="0 0 2048 2048">
  <path
     fill="rgb(9,9,8)"
     d="M 603.912 235.726 C 603.192 216.354 597.802 169.999 611.695 155.978 C 613.943 153.709 616.607 152.518 619.841 152.513 C 639.075 152.486 697.085 227.261 709.926 243.158 C 727.52 264.938 745.612 287.349 761.339 310.537 C 769.102 321.983 774.984 336.566 783.722 346.968 C 790.418 354.939 801.049 359.982 809.12 366.583 C 834.356 387.195 855.417 412.445 871.166 440.97 C 885.376 467.263 892.429 489.092 902.892 517.077 C 915.157 549.884 923.724 595.818 946.196 622.572 C 953.861 631.698 971.894 637.559 982.295 643.652 C 993.95 650.479 1003.05 657.992 1012.57 667.569 C 1024.84 679.853 1035.79 693.4 1045.22 707.984 C 1060.92 732.443 1067.86 755.05 1092.83 771.57 C 1121.29 790.398 1152.85 798.019 1184.77 808.695 C 1202.74 814.701 1220.35 821.755 1237.5 829.822 C 1350.8 884.959 1440.09 979.554 1488.6 1095.85 C 1509.67 1145.34 1524.54 1199.05 1537.2 1251.33 C 1563.16 1358.93 1586.69 1471.24 1575.64 1582.41 C 1570.22 1631.03 1557.76 1678.61 1548.81 1726.62 C 1547.2 1735.25 1549.53 1741.78 1559.31 1741.03 C 1591.79 1738.56 1623.3 1717.51 1645.17 1695.25 C 1718.17 1620.95 1753.39 1522.12 1752.57 1418.98 C 1751.65 1321.58 1717.67 1227.37 1656.2 1151.81 C 1638.56 1129.7 1614.43 1107.48 1602.88 1082.55 C 1588.27 1051.02 1612.42 1015.22 1647.08 1015.83 C 1671.57 1016.27 1688.35 1032.36 1704.93 1048.7 C 1777.63 1123.48 1832.14 1229.73 1852.57 1331.77 C 1858.98 1363.81 1861.1 1403.32 1861.11 1435.54 C 1861.15 1561.79 1810.16 1694.66 1719.6 1783.69 C 1654.45 1847.74 1588.23 1879.31 1495.73 1878.82 L 1488.08 1878.75 C 1484.82 1888.7 1481.16 1895.49 1471 1900.2 C 1459.24 1905.66 1440.5 1907.14 1427.53 1907.52 C 1396.68 1908.41 1365.31 1908.04 1334.41 1908.04 L 1168.88 1908.04 L 1012.29 1908.06 C 984.984 1908.06 957.423 1908.35 930.329 1907.75 C 913.8 1907.39 891.42 1900.58 885.382 1884.09 C 873.398 1851.37 895.702 1813.48 927.276 1801.92 C 944.716 1795.54 957.208 1794.94 974.851 1793.81 C 936.338 1766.13 913.581 1736.89 905.697 1688.39 L 901.261 1659.3 C 895.216 1683.75 888.94 1708.14 882.431 1732.47 C 870.255 1779.36 849.786 1869.87 807.633 1898.28 C 782.529 1915.19 703.052 1912.67 672.9 1906.76 C 662.511 1904.72 653.515 1899.19 647.826 1889.75 C 647.034 1888.43 646.262 1887.1 645.51 1885.76 C 638.713 1883.42 631.331 1879.12 628.646 1871.64 C 616.912 1838.92 626.779 1801.75 659.341 1785.73 C 686.218 1772.5 706.411 1796.92 719.07 1767.37 C 724.851 1753.87 725.589 1737.58 726.998 1723.2 C 729.127 1663.87 727.28 1603.05 726.25 1543.62 C 725.157 1480.61 726.248 1416.6 720.987 1353.98 C 719.72 1338.9 711.996 1296 705.298 1281.94 C 699.273 1269.29 679.825 1243.2 671.521 1228.5 C 638.466 1170.02 585.292 1082.6 569.34 1018.06 C 565.649 1002.65 563.863 986.84 564.022 970.994 C 564.081 942.654 570.997 914.884 578.951 887.305 C 593.853 835.634 602.812 785.134 591.019 731.242 C 574.426 654.827 488.951 722.507 443.504 686.365 C 435.806 680.244 431.387 670.461 425.987 666.066 C 411.971 654.658 407.645 653.767 396.464 638.266 C 369.16 658.342 351.302 676.422 330.42 703.046 L 329.965 701.988 C 345.048 678.45 372.527 652.178 394.674 636.108 C 391.017 628.98 389.746 625.071 387.216 617.37 C 339.106 626.871 305.955 639.177 263.662 664.82 C 255.306 669.886 234.112 685.752 229.39 687.875 C 269.868 653.451 333.729 621.146 386.889 614.296 C 383.653 605.943 381.886 602.162 376.63 594.707 C 336.338 590.932 292.469 596.434 253.344 606.55 L 252.448 604.372 C 299.75 594.132 322.822 587.28 374.393 590.621 C 369.969 582.665 367.171 578.985 371.424 570.081 L 372.64 568.853 C 384.771 547.813 411.495 529.095 422.766 506.025 C 433.441 484.175 430.997 465.593 437.109 443.212 C 438.994 436.307 446.408 425.065 450.132 418.404 L 451.605 416.731 C 454.661 413.128 457.778 409.577 460.954 406.078 C 442.844 370.849 422.823 354.416 392.923 331.366 L 394.022 330.925 C 421.228 346.351 447.867 376.612 463.193 403.59 C 490.599 369.633 534.054 343.012 575.124 329.086 C 576.021 285.955 556.839 249.302 546.539 208.36 C 544.86 201.688 542.64 188.932 547.065 183.37 C 554.732 179.677 596.894 228.332 603.912 235.726 z" />
  <path
     
     d="M 482.844 509.734 C 480.98 492.683 480.449 467.599 485.284 451.392 C 488.188 441.657 520.888 461.054 526.006 465.234 C 522.456 478.396 493.488 541.563 470.337 513.448 C 463.316 504.922 466.671 479.449 470.019 467.961 C 471.889 471.91 471.773 472.569 472.215 477.037 C 472.311 490.279 473.962 499.514 482.844 509.734 z"
     fill="#090908" />
  <path
     
     d="M 470.019 467.961 C 473.098 459.83 474.152 457.011 480.208 450.475 L 481.084 450.599 C 477.451 462.67 473.643 462.851 472.215 477.037 C 471.773 472.569 471.889 471.91 470.019 467.961 z"
     fill="#090908" />
  <path
     fill="rgb(42,42,41)"
     d="M 716.833 1297.29 C 722.027 1299.16 732.676 1314.13 736.144 1319.28 C 730.654 1317.71 719.54 1302.4 716.833 1297.29 z" />
  <path
     fill="rgb(42,42,41)"
     d="M 371.424 570.081 C 317.959 545.108 281.558 540.503 224.006 540.377 C 258.507 535.268 347.547 546.473 372.64 568.853 L 371.424 570.081 z" />
  <path
     fill="rgb(42,42,41)"
     d="M 368.379 364.973 C 396.668 373.567 434.904 391.449 451.605 416.731 L 450.132 418.404 C 433.094 398.161 392.615 369.662 367.286 365.611 L 368.379 364.973 z" />
  <path
     fill="rgb(121,121,121)"
     d="M 253.344 606.55 C 237.429 611.61 221.704 616.344 206.101 622.328 C 201.771 623.988 190.114 629.573 187.09 629.549 C 200.96 621.129 235.919 609.445 252.448 604.372 L 253.344 606.55 z" />
  <path
     fill="rgb(194,193,194)"
     d="M 352.295 310.839 C 362.151 311.637 379.234 320.869 387.203 326.744 L 385.995 327.272 C 382.647 326.14 357.569 313.34 352.295 310.839 z" />
  <path
     fill="rgb(194,193,194)"
     d="M 367.286 365.611 C 363.387 364.766 344.901 360.915 342.453 359.305 C 349.078 358.82 362.897 361.715 368.379 364.973 L 367.286 365.611 z" />
  <path
     fill="rgb(194,193,194)"
     d="M 314.997 724.751 L 315.441 725.908 C 315.024 729.193 309.811 737.681 307.886 741.111 C 307.044 737.455 312.938 728.298 314.997 724.751 z" />
  <path
     fill="rgb(194,193,194)"
     d="M 302.489 748.61 L 303.067 750.326 C 302.468 754.102 301.48 755.377 299.646 758.677 L 298.583 757.534 L 302.489 748.61 z" />
</svg>
